<?xml version="1.0" encoding="utf-8"?>
<!-- Generator: Adobe Illustrator 17.0.0, SVG Export Plug-In . SVG Version: 6.00 Build 0)  -->
<!DOCTYPE svg PUBLIC "-//W3C//DTD SVG 1.1//EN" "http://www.w3.org/Graphics/SVG/1.1/DTD/svg11.dtd">
<svg version="1.1" id="Layer_1" xmlns="http://www.w3.org/2000/svg" xmlns:xlink="http://www.w3.org/1999/xlink" x="0px" y="0px"
	 width="1600px" height="700px" viewBox="0 0 1600 700" enable-background="new 0 0 1600 700" xml:space="preserve">
<linearGradient id="SVGID_1_" gradientUnits="userSpaceOnUse" x1="815.002" y1="420.7472" x2="1710.854" y2="420.7472">
	<stop  offset="0" style="stop-color:#DFDEFC"/>
	<stop  offset="1" style="stop-color:#C8C7FA"/>
</linearGradient>
<path fill="url(#SVGID_1_)" d="M815.002,487.7l203.371,108.804c0,0,40.674,24.179,95.585,7.909l245.063-62.819l351.833-96.093
	l-27.455-214.048l-868.396,24.405V487.7H815.002z"/>
<linearGradient id="SVGID_2_" gradientUnits="userSpaceOnUse" x1="-39" y1="306.7569" x2="1723" y2="306.7569">
	<stop  offset="0" style="stop-color:#FFFFFF"/>
	<stop  offset="0.1343" style="stop-color:#FBFBFE"/>
	<stop  offset="0.3278" style="stop-color:#EEEDFD"/>
	<stop  offset="0.5572" style="stop-color:#EBEAFD"/>
	<stop  offset="0.812" style="stop-color:#DEDEFF"/>
	<stop  offset="1" style="stop-color:#C3C3FC"/>
</linearGradient>
<path fill="url(#SVGID_2_)" d="M-39,438.444l400,214c0,0,80,47.556,188,15.556l482-123.556l692-189l-54-421l-1708,48V438.444z"/>
<linearGradient id="SVGID_3_" gradientUnits="userSpaceOnUse" x1="336.035" y1="218.1452" x2="1740.999" y2="218.1452">
	<stop  offset="0" style="stop-color:#FCFCFE"/>
	<stop  offset="1" style="stop-color:#D8D7FC"/>
</linearGradient>
<path fill="url(#SVGID_3_)" d="M336.035,323.148l318.948,170.637c0,0,63.79,37.919,149.905,12.404l384.332-98.519l551.779-150.703
	l-43.058-335.692L336.035-40.452V323.148z"/>
<linearGradient id="SVGID_4_" gradientUnits="userSpaceOnUse" x1="-1330.9219" y1="554.0211" x2="-1291.0605" y2="554.0211" gradientTransform="matrix(0.857 -0.5153 -0.5153 -0.857 1675.2495 409.2826)">
	<stop  offset="0" style="stop-color:#6F30E6"/>
	<stop  offset="1" style="stop-color:#4C55FC"/>
	<stop  offset="1" style="stop-color:#4C57A6"/>
	<stop  offset="1" style="stop-color:#7642F4"/>
</linearGradient>
<path fill="url(#SVGID_4_)" d="M248.579,618.648c0,0-3.686-3.132-2.344-7.384l3.874-13.05c0,0,1.095-4.684,6.294-5.519l9.77-1.715
	l1.407-0.171c0,0,5.406-1.385,8.366,2.419l8.03,8.247c0,0,3.613,3.217,2.296,7.292l-4.957,14.922c0,0-1.051,2.697-4.488,3.597
	l-14.12,2.34c0,0-2.843,0.917-5.441-1.471L248.579,618.648z"/>
<linearGradient id="SVGID_5_" gradientUnits="userSpaceOnUse" x1="-974.167" y1="414.833" x2="-974.167" y2="414.833" gradientTransform="matrix(1 0 0 -1 2466 1051)">
	<stop  offset="0" style="stop-color:#7135E8"/>
	<stop  offset="1" style="stop-color:#7335E9"/>
	<stop  offset="1" style="stop-color:#4C57A6"/>
	<stop  offset="1" style="stop-color:#5056A6"/>
</linearGradient>
<path fill="url(#SVGID_5_)" d="M1491.833,636.167"/>
<linearGradient id="SVGID_6_" gradientUnits="userSpaceOnUse" x1="602.6702" y1="231.4529" x2="919.7153" y2="231.4529">
	<stop  offset="0" style="stop-color:#FBFBFE"/>
	<stop  offset="1" style="stop-color:#E4E3FD"/>
</linearGradient>
<path fill="url(#SVGID_6_)" d="M615.056,269.065c0,0-22.96-29.211-6.359-59.161l49.1-92.298c0,0,15.394-33.581,55.81-31.913
	l76.148,2.028l10.854,0.865c0,0,42.798-2.164,59.265,30.993l47.834,74.349c0,0,22.282,29.738,6.139,58.396L853.73,357.061
	c0,0-12.039,18.697-39.279,20.212l-109.847-3.964c0,0-22.798,2.56-38.705-19.393L615.056,269.065z"/>
<linearGradient id="SVGID_7_" gradientUnits="userSpaceOnUse" x1="-397.0928" y1="255.2165" x2="-364.8197" y2="255.2165" gradientTransform="matrix(0.9655 0.2604 0.2604 -0.9655 1580.0902 935.1245)">
	<stop  offset="0" style="stop-color:#F9677B"/>
	<stop  offset="1" style="stop-color:#F95873"/>
	<stop  offset="1" style="stop-color:#4C57A6"/>
	<stop  offset="1" style="stop-color:#7538EC"/>
</linearGradient>
<path fill="url(#SVGID_7_)" d="M1263.376,589.334c0,0-1.482-3.479,0.943-5.983l7.272-7.77c0,0,2.403-2.893,6.331-1.657l7.431,2.218
	l1.044,0.373c0,0,4.264,0.922,5.003,4.617l2.73,8.575c0,0,1.401,3.513-0.944,5.902l-8.685,8.701c0,0-1.679,1.518-4.397,0.946
	l-10.691-3.302c0,0-2.308-0.352-3.29-2.932L1263.376,589.334z"/>
</svg>
